<svg aria-roledescription="er" role="graphics-document document" viewBox="0 0 771.6015625 854.03125" style="max-width: 771.6015625px;" xmlns:xlink="http://www.w3.org/1999/xlink" xmlns="http://www.w3.org/2000/svg" width="100%" id="mermaid-1712840374370"><style>#mermaid-1712840374370{font-family:"trebuchet ms",verdana,arial,sans-serif;font-size:16px;fill:#ccc;}#mermaid-1712840374370 .error-icon{fill:#a44141;}#mermaid-1712840374370 .error-text{fill:#ddd;stroke:#ddd;}#mermaid-1712840374370 .edge-thickness-normal{stroke-width:2px;}#mermaid-1712840374370 .edge-thickness-thick{stroke-width:3.5px;}#mermaid-1712840374370 .edge-pattern-solid{stroke-dasharray:0;}#mermaid-1712840374370 .edge-pattern-dashed{stroke-dasharray:3;}#mermaid-1712840374370 .edge-pattern-dotted{stroke-dasharray:2;}#mermaid-1712840374370 .marker{fill:lightgrey;stroke:lightgrey;}#mermaid-1712840374370 .marker.cross{stroke:lightgrey;}#mermaid-1712840374370 svg{font-family:"trebuchet ms",verdana,arial,sans-serif;font-size:16px;}#mermaid-1712840374370 .entityBox{fill:#1f2020;stroke:#81B1DB;}#mermaid-1712840374370 .attributeBoxOdd{fill:hsl(0, 0%, 32%);stroke:#81B1DB;}#mermaid-1712840374370 .attributeBoxEven{fill:hsl(0, 0%, 22%);stroke:#81B1DB;}#mermaid-1712840374370 .relationshipLabelBox{fill:hsl(20, 1.5873015873%, 12.3529411765%);opacity:0.7;background-color:hsl(20, 1.5873015873%, 12.3529411765%);}#mermaid-1712840374370 .relationshipLabelBox rect{opacity:0.5;}#mermaid-1712840374370 .relationshipLine{stroke:lightgrey;}#mermaid-1712840374370 .entityTitleText{text-anchor:middle;font-size:18px;fill:#ccc;}#mermaid-1712840374370 #MD_PARENT_START{fill:#f5f5f5!important;stroke:lightgrey!important;stroke-width:1;}#mermaid-1712840374370 #MD_PARENT_END{fill:#f5f5f5!important;stroke:lightgrey!important;stroke-width:1;}#mermaid-1712840374370 :root{--mermaid-font-family:"trebuchet ms",verdana,arial,sans-serif;}</style><g></g><defs><marker orient="auto" markerHeight="240" markerWidth="190" refY="7" refX="0" id="MD_PARENT_START"><path d="M 18,7 L9,13 L1,7 L9,1 Z"></path></marker></defs><defs><marker orient="auto" markerHeight="28" markerWidth="20" refY="7" refX="19" id="MD_PARENT_END"><path d="M 18,7 L9,13 L1,7 L9,1 Z"></path></marker></defs><defs><marker orient="auto" markerHeight="18" markerWidth="18" refY="9" refX="0" id="ONLY_ONE_START"><path d="M9,0 L9,18 M15,0 L15,18" fill="none" stroke="gray"></path></marker></defs><defs><marker orient="auto" markerHeight="18" markerWidth="18" refY="9" refX="18" id="ONLY_ONE_END"><path d="M3,0 L3,18 M9,0 L9,18" fill="none" stroke="gray"></path></marker></defs><defs><marker orient="auto" markerHeight="18" markerWidth="30" refY="9" refX="0" id="ZERO_OR_ONE_START"><circle r="6" cy="9" cx="21" fill="white" stroke="gray"></circle><path d="M9,0 L9,18" fill="none" stroke="gray"></path></marker></defs><defs><marker orient="auto" markerHeight="18" markerWidth="30" refY="9" refX="30" id="ZERO_OR_ONE_END"><circle r="6" cy="9" cx="9" fill="white" stroke="gray"></circle><path d="M21,0 L21,18" fill="none" stroke="gray"></path></marker></defs><defs><marker orient="auto" markerHeight="36" markerWidth="45" refY="18" refX="18" id="ONE_OR_MORE_START"><path d="M0,18 Q 18,0 36,18 Q 18,36 0,18 M42,9 L42,27" fill="none" stroke="gray"></path></marker></defs><defs><marker orient="auto" markerHeight="36" markerWidth="45" refY="18" refX="27" id="ONE_OR_MORE_END"><path d="M3,9 L3,27 M9,18 Q27,0 45,18 Q27,36 9,18" fill="none" stroke="gray"></path></marker></defs><defs><marker orient="auto" markerHeight="36" markerWidth="57" refY="18" refX="18" id="ZERO_OR_MORE_START"><circle r="6" cy="18" cx="48" fill="white" stroke="gray"></circle><path d="M0,18 Q18,0 36,18 Q18,36 0,18" fill="none" stroke="gray"></path></marker></defs><defs><marker orient="auto" markerHeight="36" markerWidth="57" refY="18" refX="39" id="ZERO_OR_MORE_END"><circle r="6" cy="18" cx="9" fill="white" stroke="gray"></circle><path d="M21,18 Q39,0 57,18 Q39,36 21,18" fill="none" stroke="gray"></path></marker></defs><path style="stroke: gray; fill: none;" marker-start="url(#ZERO_OR_ONE_START)" marker-end="url(#ZERO_OR_ONE_END)" d="M158.219,600.023L158.219,608.357C158.219,616.69,158.219,633.357,158.219,650.023C158.219,666.69,158.219,683.357,158.219,691.69L158.219,700.023" class="er relationshipLine"></path><path style="stroke: gray; fill: none;" marker-start="url(#ZERO_OR_MORE_START)" marker-end="url(#ZERO_OR_ONE_END)" d="M176.204,366.016L173.206,374.349C170.209,382.682,164.214,399.349,161.216,416.016C158.219,432.682,158.219,449.349,158.219,457.682L158.219,466.016" class="er relationshipLine"></path><path style="stroke: gray; fill: none;" marker-start="url(#ZERO_OR_MORE_START)" marker-end="url(#ZERO_OR_MORE_END)" d="M341.337,366.016L353.801,374.349C366.264,382.682,391.192,399.349,414.902,416.016C438.611,432.682,461.104,449.349,472.35,457.682L483.596,466.016" class="er relationshipLine"></path><path style="stroke: gray; fill: none;" marker-start="url(#ONE_OR_MORE_START)" marker-end="url(#ONLY_ONE_END)" d="M302.203,88.008L286.539,96.341C270.875,104.674,239.547,121.341,223.883,138.008C208.219,154.674,208.219,171.341,208.219,179.674L208.219,188.008" class="er relationshipLine"></path><path style="stroke: gray; fill: none;" marker-start="url(#ONE_OR_MORE_START)" marker-end="url(#ONLY_ONE_END)" d="M470.515,88.008L496.099,96.341C521.683,104.674,572.851,121.341,598.435,152.842C624.02,184.342,624.02,230.677,624.02,277.012C624.02,323.346,624.02,369.681,620.458,401.182C616.897,432.682,609.775,449.349,606.214,457.682L602.653,466.016" class="er relationshipLine"></path><g transform="translate(20,466.015625 )" id="entity-tbluserUser-e85536bd-094c-57b4-b419-730624a8b0a0"><rect height="134.0078125" width="276.4375" y="0" x="0" class="er entityBox"></rect><text style="dominant-baseline: middle; text-anchor: middle; font-size: 12px;" transform="translate(138.21875,12.00390625)" y="0" x="0" id="text-entity-tbluserUser-e85536bd-094c-57b4-b419-730624a8b0a0" class="er entityLabel">tbl_user(User)</text><rect height="22" width="71.5546875" y="24.0078125" x="0" class="er attributeBoxOdd"></rect><text style="dominant-baseline: middle; font-size: 10.2px;" transform="translate(5,35.0078125)" y="0" x="0" id="text-entity-tbluserUser-e85536bd-094c-57b4-b419-730624a8b0a0-attr-1-type" class="er entityLabel">*int</text><rect height="22" width="54.71875" y="24.0078125" x="71.5546875" class="er attributeBoxOdd"></rect><text style="dominant-baseline: middle; font-size: 10.2px;" transform="translate(76.5546875,35.0078125)" y="0" x="0" id="text-entity-tbluserUser-e85536bd-094c-57b4-b419-730624a8b0a0-attr-1-name" class="er entityLabel">id</text><rect height="22" width="21.5625" y="24.0078125" x="126.2734375" class="er attributeBoxOdd"></rect><text style="dominant-baseline: middle; font-size: 10.2px;" transform="translate(131.2734375,35.0078125)" y="0" x="0" id="text-entity-tbluserUser-e85536bd-094c-57b4-b419-730624a8b0a0-attr-1-key" class="er entityLabel">PK</text><rect height="22" width="128.6015625" y="24.0078125" x="147.8359375" class="er attributeBoxOdd"></rect><text style="dominant-baseline: middle; font-size: 10.2px;" transform="translate(152.8359375,35.0078125)" y="0" x="0" id="text-entity-tbluserUser-e85536bd-094c-57b4-b419-730624a8b0a0-attr-1-comment" class="er entityLabel"></text><rect height="22" width="71.5546875" y="46.0078125" x="0" class="er attributeBoxEven"></rect><text style="dominant-baseline: middle; font-size: 10.2px;" transform="translate(5,57.0078125)" y="0" x="0" id="text-entity-tbluserUser-e85536bd-094c-57b4-b419-730624a8b0a0-attr-2-type" class="er entityLabel">*varchar(256)</text><rect height="22" width="54.71875" y="46.0078125" x="71.5546875" class="er attributeBoxEven"></rect><text style="dominant-baseline: middle; font-size: 10.2px;" transform="translate(76.5546875,57.0078125)" y="0" x="0" id="text-entity-tbluserUser-e85536bd-094c-57b4-b419-730624a8b0a0-attr-2-name" class="er entityLabel">firstName</text><rect height="22" width="21.5625" y="46.0078125" x="126.2734375" class="er attributeBoxEven"></rect><text style="dominant-baseline: middle; font-size: 10.2px;" transform="translate(131.2734375,57.0078125)" y="0" x="0" id="text-entity-tbluserUser-e85536bd-094c-57b4-b419-730624a8b0a0-attr-2-key" class="er entityLabel"></text><rect height="22" width="128.6015625" y="46.0078125" x="147.8359375" class="er attributeBoxEven"></rect><text style="dominant-baseline: middle; font-size: 10.2px;" transform="translate(152.8359375,57.0078125)" y="0" x="0" id="text-entity-tbluserUser-e85536bd-094c-57b4-b419-730624a8b0a0-attr-2-comment" class="er entityLabel">user firstname</text><rect height="22" width="71.5546875" y="68.0078125" x="0" class="er attributeBoxOdd"></rect><text style="dominant-baseline: middle; font-size: 10.2px;" transform="translate(5,79.0078125)" y="0" x="0" id="text-entity-tbluserUser-e85536bd-094c-57b4-b419-730624a8b0a0-attr-3-type" class="er entityLabel">*varchar(256)</text><rect height="22" width="54.71875" y="68.0078125" x="71.5546875" class="er attributeBoxOdd"></rect><text style="dominant-baseline: middle; font-size: 10.2px;" transform="translate(76.5546875,79.0078125)" y="0" x="0" id="text-entity-tbluserUser-e85536bd-094c-57b4-b419-730624a8b0a0-attr-3-name" class="er entityLabel">lastName</text><rect height="22" width="21.5625" y="68.0078125" x="126.2734375" class="er attributeBoxOdd"></rect><text style="dominant-baseline: middle; font-size: 10.2px;" transform="translate(131.2734375,79.0078125)" y="0" x="0" id="text-entity-tbluserUser-e85536bd-094c-57b4-b419-730624a8b0a0-attr-3-key" class="er entityLabel"></text><rect height="22" width="128.6015625" y="68.0078125" x="147.8359375" class="er attributeBoxOdd"></rect><text style="dominant-baseline: middle; font-size: 10.2px;" transform="translate(152.8359375,79.0078125)" y="0" x="0" id="text-entity-tbluserUser-e85536bd-094c-57b4-b419-730624a8b0a0-attr-3-comment" class="er entityLabel"></text><rect height="22" width="71.5546875" y="90.0078125" x="0" class="er attributeBoxEven"></rect><text style="dominant-baseline: middle; font-size: 10.2px;" transform="translate(5,101.0078125)" y="0" x="0" id="text-entity-tbluserUser-e85536bd-094c-57b4-b419-730624a8b0a0-attr-4-type" class="er entityLabel">*boolean</text><rect height="22" width="54.71875" y="90.0078125" x="71.5546875" class="er attributeBoxEven"></rect><text style="dominant-baseline: middle; font-size: 10.2px;" transform="translate(76.5546875,101.0078125)" y="0" x="0" id="text-entity-tbluserUser-e85536bd-094c-57b4-b419-730624a8b0a0-attr-4-name" class="er entityLabel">isActive</text><rect height="22" width="21.5625" y="90.0078125" x="126.2734375" class="er attributeBoxEven"></rect><text style="dominant-baseline: middle; font-size: 10.2px;" transform="translate(131.2734375,101.0078125)" y="0" x="0" id="text-entity-tbluserUser-e85536bd-094c-57b4-b419-730624a8b0a0-attr-4-key" class="er entityLabel"></text><rect height="22" width="128.6015625" y="90.0078125" x="147.8359375" class="er attributeBoxEven"></rect><text style="dominant-baseline: middle; font-size: 10.2px;" transform="translate(152.8359375,101.0078125)" y="0" x="0" id="text-entity-tbluserUser-e85536bd-094c-57b4-b419-730624a8b0a0-attr-4-comment" class="er entityLabel">line1&lt;br/&gt;line2&lt;br/&gt;line3</text><rect height="22" width="71.5546875" y="112.0078125" x="0" class="er attributeBoxOdd"></rect><text style="dominant-baseline: middle; font-size: 10.2px;" transform="translate(5,123.0078125)" y="0" x="0" id="text-entity-tbluserUser-e85536bd-094c-57b4-b419-730624a8b0a0-attr-5-type" class="er entityLabel">int</text><rect height="22" width="54.71875" y="112.0078125" x="71.5546875" class="er attributeBoxOdd"></rect><text style="dominant-baseline: middle; font-size: 10.2px;" transform="translate(76.5546875,123.0078125)" y="0" x="0" id="text-entity-tbluserUser-e85536bd-094c-57b4-b419-730624a8b0a0-attr-5-name" class="er entityLabel">photo</text><rect height="22" width="21.5625" y="112.0078125" x="126.2734375" class="er attributeBoxOdd"></rect><text style="dominant-baseline: middle; font-size: 10.2px;" transform="translate(131.2734375,123.0078125)" y="0" x="0" id="text-entity-tbluserUser-e85536bd-094c-57b4-b419-730624a8b0a0-attr-5-key" class="er entityLabel">FK</text><rect height="22" width="128.6015625" y="112.0078125" x="147.8359375" class="er attributeBoxOdd"></rect><text style="dominant-baseline: middle; font-size: 10.2px;" transform="translate(152.8359375,123.0078125)" y="0" x="0" id="text-entity-tbluserUser-e85536bd-094c-57b4-b419-730624a8b0a0-attr-5-comment" class="er entityLabel"></text></g><g transform="translate(33.34375,700.0234375 )" id="entity-tblphotoPhoto-4c6cae87-034e-5efe-b3aa-5e0f2a27cd46"><rect height="134.0078125" width="249.75" y="0" x="0" class="er entityBox"></rect><text style="dominant-baseline: middle; text-anchor: middle; font-size: 12px;" transform="translate(124.875,12.00390625)" y="0" x="0" id="text-entity-tblphotoPhoto-4c6cae87-034e-5efe-b3aa-5e0f2a27cd46" class="er entityLabel">tbl_photo(Photo)</text><rect height="22" width="76.8984375" y="24.0078125" x="0" class="er attributeBoxOdd"></rect><text style="dominant-baseline: middle; font-size: 10.2px;" transform="translate(5,35.0078125)" y="0" x="0" id="text-entity-tblphotoPhoto-4c6cae87-034e-5efe-b3aa-5e0f2a27cd46-attr-1-type" class="er entityLabel">*int</text><rect height="22" width="60.984375" y="24.0078125" x="76.8984375" class="er attributeBoxOdd"></rect><text style="dominant-baseline: middle; font-size: 10.2px;" transform="translate(81.8984375,35.0078125)" y="0" x="0" id="text-entity-tblphotoPhoto-4c6cae87-034e-5efe-b3aa-5e0f2a27cd46-attr-1-name" class="er entityLabel">id</text><rect height="22" width="21.5625" y="24.0078125" x="137.8828125" class="er attributeBoxOdd"></rect><text style="dominant-baseline: middle; font-size: 10.2px;" transform="translate(142.8828125,35.0078125)" y="0" x="0" id="text-entity-tblphotoPhoto-4c6cae87-034e-5efe-b3aa-5e0f2a27cd46-attr-1-key" class="er entityLabel">PK</text><rect height="22" width="90.3046875" y="24.0078125" x="159.4453125" class="er attributeBoxOdd"></rect><text style="dominant-baseline: middle; font-size: 10.2px;" transform="translate(164.4453125,35.0078125)" y="0" x="0" id="text-entity-tblphotoPhoto-4c6cae87-034e-5efe-b3aa-5e0f2a27cd46-attr-1-comment" class="er entityLabel"></text><rect height="22" width="76.8984375" y="46.0078125" x="0" class="er attributeBoxEven"></rect><text style="dominant-baseline: middle; font-size: 10.2px;" transform="translate(5,57.0078125)" y="0" x="0" id="text-entity-tblphotoPhoto-4c6cae87-034e-5efe-b3aa-5e0f2a27cd46-attr-2-type" class="er entityLabel">*varchar(512)</text><rect height="22" width="60.984375" y="46.0078125" x="76.8984375" class="er attributeBoxEven"></rect><text style="dominant-baseline: middle; font-size: 10.2px;" transform="translate(81.8984375,57.0078125)" y="0" x="0" id="text-entity-tblphotoPhoto-4c6cae87-034e-5efe-b3aa-5e0f2a27cd46-attr-2-name" class="er entityLabel">title</text><rect height="22" width="21.5625" y="46.0078125" x="137.8828125" class="er attributeBoxEven"></rect><text style="dominant-baseline: middle; font-size: 10.2px;" transform="translate(142.8828125,57.0078125)" y="0" x="0" id="text-entity-tblphotoPhoto-4c6cae87-034e-5efe-b3aa-5e0f2a27cd46-attr-2-key" class="er entityLabel"></text><rect height="22" width="90.3046875" y="46.0078125" x="159.4453125" class="er attributeBoxEven"></rect><text style="dominant-baseline: middle; font-size: 10.2px;" transform="translate(164.4453125,57.0078125)" y="0" x="0" id="text-entity-tblphotoPhoto-4c6cae87-034e-5efe-b3aa-5e0f2a27cd46-attr-2-comment" class="er entityLabel">photo title</text><rect height="22" width="76.8984375" y="68.0078125" x="0" class="er attributeBoxOdd"></rect><text style="dominant-baseline: middle; font-size: 10.2px;" transform="translate(5,79.0078125)" y="0" x="0" id="text-entity-tblphotoPhoto-4c6cae87-034e-5efe-b3aa-5e0f2a27cd46-attr-3-type" class="er entityLabel">*varchar(2048)</text><rect height="22" width="60.984375" y="68.0078125" x="76.8984375" class="er attributeBoxOdd"></rect><text style="dominant-baseline: middle; font-size: 10.2px;" transform="translate(81.8984375,79.0078125)" y="0" x="0" id="text-entity-tblphotoPhoto-4c6cae87-034e-5efe-b3aa-5e0f2a27cd46-attr-3-name" class="er entityLabel">description</text><rect height="22" width="21.5625" y="68.0078125" x="137.8828125" class="er attributeBoxOdd"></rect><text style="dominant-baseline: middle; font-size: 10.2px;" transform="translate(142.8828125,79.0078125)" y="0" x="0" id="text-entity-tblphotoPhoto-4c6cae87-034e-5efe-b3aa-5e0f2a27cd46-attr-3-key" class="er entityLabel"></text><rect height="22" width="90.3046875" y="68.0078125" x="159.4453125" class="er attributeBoxOdd"></rect><text style="dominant-baseline: middle; font-size: 10.2px;" transform="translate(164.4453125,79.0078125)" y="0" x="0" id="text-entity-tblphotoPhoto-4c6cae87-034e-5efe-b3aa-5e0f2a27cd46-attr-3-comment" class="er entityLabel">photo description</text><rect height="22" width="76.8984375" y="90.0078125" x="0" class="er attributeBoxEven"></rect><text style="dominant-baseline: middle; font-size: 10.2px;" transform="translate(5,101.0078125)" y="0" x="0" id="text-entity-tblphotoPhoto-4c6cae87-034e-5efe-b3aa-5e0f2a27cd46-attr-4-type" class="er entityLabel">*int</text><rect height="22" width="60.984375" y="90.0078125" x="76.8984375" class="er attributeBoxEven"></rect><text style="dominant-baseline: middle; font-size: 10.2px;" transform="translate(81.8984375,101.0078125)" y="0" x="0" id="text-entity-tblphotoPhoto-4c6cae87-034e-5efe-b3aa-5e0f2a27cd46-attr-4-name" class="er entityLabel">width</text><rect height="22" width="21.5625" y="90.0078125" x="137.8828125" class="er attributeBoxEven"></rect><text style="dominant-baseline: middle; font-size: 10.2px;" transform="translate(142.8828125,101.0078125)" y="0" x="0" id="text-entity-tblphotoPhoto-4c6cae87-034e-5efe-b3aa-5e0f2a27cd46-attr-4-key" class="er entityLabel"></text><rect height="22" width="90.3046875" y="90.0078125" x="159.4453125" class="er attributeBoxEven"></rect><text style="dominant-baseline: middle; font-size: 10.2px;" transform="translate(164.4453125,101.0078125)" y="0" x="0" id="text-entity-tblphotoPhoto-4c6cae87-034e-5efe-b3aa-5e0f2a27cd46-attr-4-comment" class="er entityLabel"></text><rect height="22" width="76.8984375" y="112.0078125" x="0" class="er attributeBoxOdd"></rect><text style="dominant-baseline: middle; font-size: 10.2px;" transform="translate(5,123.0078125)" y="0" x="0" id="text-entity-tblphotoPhoto-4c6cae87-034e-5efe-b3aa-5e0f2a27cd46-attr-5-type" class="er entityLabel">*int</text><rect height="22" width="60.984375" y="112.0078125" x="76.8984375" class="er attributeBoxOdd"></rect><text style="dominant-baseline: middle; font-size: 10.2px;" transform="translate(81.8984375,123.0078125)" y="0" x="0" id="text-entity-tblphotoPhoto-4c6cae87-034e-5efe-b3aa-5e0f2a27cd46-attr-5-name" class="er entityLabel">height</text><rect height="22" width="21.5625" y="112.0078125" x="137.8828125" class="er attributeBoxOdd"></rect><text style="dominant-baseline: middle; font-size: 10.2px;" transform="translate(142.8828125,123.0078125)" y="0" x="0" id="text-entity-tblphotoPhoto-4c6cae87-034e-5efe-b3aa-5e0f2a27cd46-attr-5-key" class="er entityLabel"></text><rect height="22" width="90.3046875" y="112.0078125" x="159.4453125" class="er attributeBoxOdd"></rect><text style="dominant-baseline: middle; font-size: 10.2px;" transform="translate(164.4453125,123.0078125)" y="0" x="0" id="text-entity-tblphotoPhoto-4c6cae87-034e-5efe-b3aa-5e0f2a27cd46-attr-5-comment" class="er entityLabel"></text></g><g transform="translate(61.28515625,188.0078125 )" id="entity-tbllicenseLicense-9e2a3fb0-7f60-506d-8a52-ecdbab474952"><rect height="178.0078125" width="293.8671875" y="0" x="0" class="er entityBox"></rect><text style="dominant-baseline: middle; text-anchor: middle; font-size: 12px;" transform="translate(146.93359375,12.00390625)" y="0" x="0" id="text-entity-tbllicenseLicense-9e2a3fb0-7f60-506d-8a52-ecdbab474952" class="er entityLabel">tbl_license(License)</text><rect height="22" width="89.734375" y="24.0078125" x="0" class="er attributeBoxOdd"></rect><text style="dominant-baseline: middle; font-size: 10.2px;" transform="translate(5,35.0078125)" y="0" x="0" id="text-entity-tbllicenseLicense-9e2a3fb0-7f60-506d-8a52-ecdbab474952-attr-1-type" class="er entityLabel">*int</text><rect height="22" width="60.984375" y="24.0078125" x="89.734375" class="er attributeBoxOdd"></rect><text style="dominant-baseline: middle; font-size: 10.2px;" transform="translate(94.734375,35.0078125)" y="0" x="0" id="text-entity-tbllicenseLicense-9e2a3fb0-7f60-506d-8a52-ecdbab474952-attr-1-name" class="er entityLabel">id</text><rect height="22" width="22.4921875" y="24.0078125" x="150.71875" class="er attributeBoxOdd"></rect><text style="dominant-baseline: middle; font-size: 10.2px;" transform="translate(155.71875,35.0078125)" y="0" x="0" id="text-entity-tbllicenseLicense-9e2a3fb0-7f60-506d-8a52-ecdbab474952-attr-1-key" class="er entityLabel">PK</text><rect height="22" width="120.65625" y="24.0078125" x="173.2109375" class="er attributeBoxOdd"></rect><text style="dominant-baseline: middle; font-size: 10.2px;" transform="translate(178.2109375,35.0078125)" y="0" x="0" id="text-entity-tbllicenseLicense-9e2a3fb0-7f60-506d-8a52-ecdbab474952-attr-1-comment" class="er entityLabel"></text><rect height="22" width="89.734375" y="46.0078125" x="0" class="er attributeBoxEven"></rect><text style="dominant-baseline: middle; font-size: 10.2px;" transform="translate(5,57.0078125)" y="0" x="0" id="text-entity-tbllicenseLicense-9e2a3fb0-7f60-506d-8a52-ecdbab474952-attr-2-type" class="er entityLabel">*varchar(512)</text><rect height="22" width="60.984375" y="46.0078125" x="89.734375" class="er attributeBoxEven"></rect><text style="dominant-baseline: middle; font-size: 10.2px;" transform="translate(94.734375,57.0078125)" y="0" x="0" id="text-entity-tbllicenseLicense-9e2a3fb0-7f60-506d-8a52-ecdbab474952-attr-2-name" class="er entityLabel">title</text><rect height="22" width="22.4921875" y="46.0078125" x="150.71875" class="er attributeBoxEven"></rect><text style="dominant-baseline: middle; font-size: 10.2px;" transform="translate(155.71875,57.0078125)" y="0" x="0" id="text-entity-tbllicenseLicense-9e2a3fb0-7f60-506d-8a52-ecdbab474952-attr-2-key" class="er entityLabel">UK</text><rect height="22" width="120.65625" y="46.0078125" x="173.2109375" class="er attributeBoxEven"></rect><text style="dominant-baseline: middle; font-size: 10.2px;" transform="translate(178.2109375,57.0078125)" y="0" x="0" id="text-entity-tbllicenseLicense-9e2a3fb0-7f60-506d-8a52-ecdbab474952-attr-2-comment" class="er entityLabel">organization title</text><rect height="22" width="89.734375" y="68.0078125" x="0" class="er attributeBoxOdd"></rect><text style="dominant-baseline: middle; font-size: 10.2px;" transform="translate(5,79.0078125)" y="0" x="0" id="text-entity-tbllicenseLicense-9e2a3fb0-7f60-506d-8a52-ecdbab474952-attr-3-type" class="er entityLabel">*double-precision</text><rect height="22" width="60.984375" y="68.0078125" x="89.734375" class="er attributeBoxOdd"></rect><text style="dominant-baseline: middle; font-size: 10.2px;" transform="translate(94.734375,79.0078125)" y="0" x="0" id="text-entity-tbllicenseLicense-9e2a3fb0-7f60-506d-8a52-ecdbab474952-attr-3-name" class="er entityLabel">weight</text><rect height="22" width="22.4921875" y="68.0078125" x="150.71875" class="er attributeBoxOdd"></rect><text style="dominant-baseline: middle; font-size: 10.2px;" transform="translate(155.71875,79.0078125)" y="0" x="0" id="text-entity-tbllicenseLicense-9e2a3fb0-7f60-506d-8a52-ecdbab474952-attr-3-key" class="er entityLabel"></text><rect height="22" width="120.65625" y="68.0078125" x="173.2109375" class="er attributeBoxOdd"></rect><text style="dominant-baseline: middle; font-size: 10.2px;" transform="translate(178.2109375,79.0078125)" y="0" x="0" id="text-entity-tbllicenseLicense-9e2a3fb0-7f60-506d-8a52-ecdbab474952-attr-3-comment" class="er entityLabel">sort weight</text><rect height="22" width="89.734375" y="90.0078125" x="0" class="er attributeBoxEven"></rect><text style="dominant-baseline: middle; font-size: 10.2px;" transform="translate(5,101.0078125)" y="0" x="0" id="text-entity-tbllicenseLicense-9e2a3fb0-7f60-506d-8a52-ecdbab474952-attr-4-type" class="er entityLabel">*varchar(200)</text><rect height="22" width="60.984375" y="90.0078125" x="89.734375" class="er attributeBoxEven"></rect><text style="dominant-baseline: middle; font-size: 10.2px;" transform="translate(94.734375,101.0078125)" y="0" x="0" id="text-entity-tbllicenseLicense-9e2a3fb0-7f60-506d-8a52-ecdbab474952-attr-4-name" class="er entityLabel">code</text><rect height="22" width="22.4921875" y="90.0078125" x="150.71875" class="er attributeBoxEven"></rect><text style="dominant-baseline: middle; font-size: 10.2px;" transform="translate(155.71875,101.0078125)" y="0" x="0" id="text-entity-tbllicenseLicense-9e2a3fb0-7f60-506d-8a52-ecdbab474952-attr-4-key" class="er entityLabel">UK</text><rect height="22" width="120.65625" y="90.0078125" x="173.2109375" class="er attributeBoxEven"></rect><text style="dominant-baseline: middle; font-size: 10.2px;" transform="translate(178.2109375,101.0078125)" y="0" x="0" id="text-entity-tbllicenseLicense-9e2a3fb0-7f60-506d-8a52-ecdbab474952-attr-4-comment" class="er entityLabel">organization code</text><rect height="22" width="89.734375" y="112.0078125" x="0" class="er attributeBoxOdd"></rect><text style="dominant-baseline: middle; font-size: 10.2px;" transform="translate(5,123.0078125)" y="0" x="0" id="text-entity-tbllicenseLicense-9e2a3fb0-7f60-506d-8a52-ecdbab474952-attr-5-type" class="er entityLabel">*varchar(2048)</text><rect height="22" width="60.984375" y="112.0078125" x="89.734375" class="er attributeBoxOdd"></rect><text style="dominant-baseline: middle; font-size: 10.2px;" transform="translate(94.734375,123.0078125)" y="0" x="0" id="text-entity-tbllicenseLicense-9e2a3fb0-7f60-506d-8a52-ecdbab474952-attr-5-name" class="er entityLabel">description</text><rect height="22" width="22.4921875" y="112.0078125" x="150.71875" class="er attributeBoxOdd"></rect><text style="dominant-baseline: middle; font-size: 10.2px;" transform="translate(155.71875,123.0078125)" y="0" x="0" id="text-entity-tbllicenseLicense-9e2a3fb0-7f60-506d-8a52-ecdbab474952-attr-5-key" class="er entityLabel"></text><rect height="22" width="120.65625" y="112.0078125" x="173.2109375" class="er attributeBoxOdd"></rect><text style="dominant-baseline: middle; font-size: 10.2px;" transform="translate(178.2109375,123.0078125)" y="0" x="0" id="text-entity-tbllicenseLicense-9e2a3fb0-7f60-506d-8a52-ecdbab474952-attr-5-comment" class="er entityLabel">organization description</text><rect height="22" width="89.734375" y="134.0078125" x="0" class="er attributeBoxEven"></rect><text style="dominant-baseline: middle; font-size: 10.2px;" transform="translate(5,145.0078125)" y="0" x="0" id="text-entity-tbllicenseLicense-9e2a3fb0-7f60-506d-8a52-ecdbab474952-attr-6-type" class="er entityLabel">*datetime</text><rect height="22" width="60.984375" y="134.0078125" x="89.734375" class="er attributeBoxEven"></rect><text style="dominant-baseline: middle; font-size: 10.2px;" transform="translate(94.734375,145.0078125)" y="0" x="0" id="text-entity-tbllicenseLicense-9e2a3fb0-7f60-506d-8a52-ecdbab474952-attr-6-name" class="er entityLabel">expire</text><rect height="22" width="22.4921875" y="134.0078125" x="150.71875" class="er attributeBoxEven"></rect><text style="dominant-baseline: middle; font-size: 10.2px;" transform="translate(155.71875,145.0078125)" y="0" x="0" id="text-entity-tbllicenseLicense-9e2a3fb0-7f60-506d-8a52-ecdbab474952-attr-6-key" class="er entityLabel"></text><rect height="22" width="120.65625" y="134.0078125" x="173.2109375" class="er attributeBoxEven"></rect><text style="dominant-baseline: middle; font-size: 10.2px;" transform="translate(178.2109375,145.0078125)" y="0" x="0" id="text-entity-tbllicenseLicense-9e2a3fb0-7f60-506d-8a52-ecdbab474952-attr-6-comment" class="er entityLabel"></text><rect height="22" width="89.734375" y="156.0078125" x="0" class="er attributeBoxOdd"></rect><text style="dominant-baseline: middle; font-size: 10.2px;" transform="translate(5,167.0078125)" y="0" x="0" id="text-entity-tbllicenseLicense-9e2a3fb0-7f60-506d-8a52-ecdbab474952-attr-7-type" class="er entityLabel">int</text><rect height="22" width="60.984375" y="156.0078125" x="89.734375" class="er attributeBoxOdd"></rect><text style="dominant-baseline: middle; font-size: 10.2px;" transform="translate(94.734375,167.0078125)" y="0" x="0" id="text-entity-tbllicenseLicense-9e2a3fb0-7f60-506d-8a52-ecdbab474952-attr-7-name" class="er entityLabel">user</text><rect height="22" width="22.4921875" y="156.0078125" x="150.71875" class="er attributeBoxOdd"></rect><text style="dominant-baseline: middle; font-size: 10.2px;" transform="translate(155.71875,167.0078125)" y="0" x="0" id="text-entity-tbllicenseLicense-9e2a3fb0-7f60-506d-8a52-ecdbab474952-attr-7-key" class="er entityLabel">FK</text><rect height="22" width="120.65625" y="156.0078125" x="173.2109375" class="er attributeBoxOdd"></rect><text style="dominant-baseline: middle; font-size: 10.2px;" transform="translate(178.2109375,167.0078125)" y="0" x="0" id="text-entity-tbllicenseLicense-9e2a3fb0-7f60-506d-8a52-ecdbab474952-attr-7-comment" class="er entityLabel"></text></g><g transform="translate(396.4375,466.015625 )" id="entity-tblorganizationOrganization-5a4688be-e944-55a4-9c04-fab7bb5591c4"><rect height="134.0078125" width="355.1640625" y="0" x="0" class="er entityBox"></rect><text style="dominant-baseline: middle; text-anchor: middle; font-size: 12px;" transform="translate(177.58203125,12.00390625)" y="0" x="0" id="text-entity-tblorganizationOrganization-5a4688be-e944-55a4-9c04-fab7bb5591c4" class="er entityLabel">tbl_organization(Organization)</text><rect height="22" width="76.8984375" y="24.0078125" x="0" class="er attributeBoxOdd"></rect><text style="dominant-baseline: middle; font-size: 10.2px;" transform="translate(5,35.0078125)" y="0" x="0" id="text-entity-tblorganizationOrganization-5a4688be-e944-55a4-9c04-fab7bb5591c4-attr-1-type" class="er entityLabel">*int</text><rect height="22" width="60.984375" y="24.0078125" x="76.8984375" class="er attributeBoxOdd"></rect><text style="dominant-baseline: middle; font-size: 10.2px;" transform="translate(81.8984375,35.0078125)" y="0" x="0" id="text-entity-tblorganizationOrganization-5a4688be-e944-55a4-9c04-fab7bb5591c4-attr-1-name" class="er entityLabel">id</text><rect height="22" width="21.5625" y="24.0078125" x="137.8828125" class="er attributeBoxOdd"></rect><text style="dominant-baseline: middle; font-size: 10.2px;" transform="translate(142.8828125,35.0078125)" y="0" x="0" id="text-entity-tblorganizationOrganization-5a4688be-e944-55a4-9c04-fab7bb5591c4-attr-1-key" class="er entityLabel">PK</text><rect height="22" width="195.71875" y="24.0078125" x="159.4453125" class="er attributeBoxOdd"></rect><text style="dominant-baseline: middle; font-size: 10.2px;" transform="translate(164.4453125,35.0078125)" y="0" x="0" id="text-entity-tblorganizationOrganization-5a4688be-e944-55a4-9c04-fab7bb5591c4-attr-1-comment" class="er entityLabel"></text><rect height="22" width="76.8984375" y="46.0078125" x="0" class="er attributeBoxEven"></rect><text style="dominant-baseline: middle; font-size: 10.2px;" transform="translate(5,57.0078125)" y="0" x="0" id="text-entity-tblorganizationOrganization-5a4688be-e944-55a4-9c04-fab7bb5591c4-attr-2-type" class="er entityLabel">*varchar(512)</text><rect height="22" width="60.984375" y="46.0078125" x="76.8984375" class="er attributeBoxEven"></rect><text style="dominant-baseline: middle; font-size: 10.2px;" transform="translate(81.8984375,57.0078125)" y="0" x="0" id="text-entity-tblorganizationOrganization-5a4688be-e944-55a4-9c04-fab7bb5591c4-attr-2-name" class="er entityLabel">title</text><rect height="22" width="21.5625" y="46.0078125" x="137.8828125" class="er attributeBoxEven"></rect><text style="dominant-baseline: middle; font-size: 10.2px;" transform="translate(142.8828125,57.0078125)" y="0" x="0" id="text-entity-tblorganizationOrganization-5a4688be-e944-55a4-9c04-fab7bb5591c4-attr-2-key" class="er entityLabel"></text><rect height="22" width="195.71875" y="46.0078125" x="159.4453125" class="er attributeBoxEven"></rect><text style="dominant-baseline: middle; font-size: 10.2px;" transform="translate(164.4453125,57.0078125)" y="0" x="0" id="text-entity-tblorganizationOrganization-5a4688be-e944-55a4-9c04-fab7bb5591c4-attr-2-comment" class="er entityLabel">organization title</text><rect height="22" width="76.8984375" y="68.0078125" x="0" class="er attributeBoxOdd"></rect><text style="dominant-baseline: middle; font-size: 10.2px;" transform="translate(5,79.0078125)" y="0" x="0" id="text-entity-tblorganizationOrganization-5a4688be-e944-55a4-9c04-fab7bb5591c4-attr-3-type" class="er entityLabel">*varchar(2048)</text><rect height="22" width="60.984375" y="68.0078125" x="76.8984375" class="er attributeBoxOdd"></rect><text style="dominant-baseline: middle; font-size: 10.2px;" transform="translate(81.8984375,79.0078125)" y="0" x="0" id="text-entity-tblorganizationOrganization-5a4688be-e944-55a4-9c04-fab7bb5591c4-attr-3-name" class="er entityLabel">description</text><rect height="22" width="21.5625" y="68.0078125" x="137.8828125" class="er attributeBoxOdd"></rect><text style="dominant-baseline: middle; font-size: 10.2px;" transform="translate(142.8828125,79.0078125)" y="0" x="0" id="text-entity-tblorganizationOrganization-5a4688be-e944-55a4-9c04-fab7bb5591c4-attr-3-key" class="er entityLabel"></text><rect height="22" width="195.71875" y="68.0078125" x="159.4453125" class="er attributeBoxOdd"></rect><text style="dominant-baseline: middle; font-size: 10.2px;" transform="translate(164.4453125,79.0078125)" y="0" x="0" id="text-entity-tblorganizationOrganization-5a4688be-e944-55a4-9c04-fab7bb5591c4-attr-3-comment" class="er entityLabel">organization description</text><rect height="22" width="76.8984375" y="90.0078125" x="0" class="er attributeBoxEven"></rect><text style="dominant-baseline: middle; font-size: 10.2px;" transform="translate(5,101.0078125)" y="0" x="0" id="text-entity-tblorganizationOrganization-5a4688be-e944-55a4-9c04-fab7bb5591c4-attr-4-type" class="er entityLabel">*simple-json</text><rect height="22" width="60.984375" y="90.0078125" x="76.8984375" class="er attributeBoxEven"></rect><text style="dominant-baseline: middle; font-size: 10.2px;" transform="translate(81.8984375,101.0078125)" y="0" x="0" id="text-entity-tblorganizationOrganization-5a4688be-e944-55a4-9c04-fab7bb5591c4-attr-4-name" class="er entityLabel">supports</text><rect height="22" width="21.5625" y="90.0078125" x="137.8828125" class="er attributeBoxEven"></rect><text style="dominant-baseline: middle; font-size: 10.2px;" transform="translate(142.8828125,101.0078125)" y="0" x="0" id="text-entity-tblorganizationOrganization-5a4688be-e944-55a4-9c04-fab7bb5591c4-attr-4-key" class="er entityLabel"></text><rect height="22" width="195.71875" y="90.0078125" x="159.4453125" class="er attributeBoxEven"></rect><text style="dominant-baseline: middle; font-size: 10.2px;" transform="translate(164.4453125,101.0078125)" y="0" x="0" id="text-entity-tblorganizationOrganization-5a4688be-e944-55a4-9c04-fab7bb5591c4-attr-4-comment" class="er entityLabel">organization supports other organization</text><rect height="22" width="76.8984375" y="112.0078125" x="0" class="er attributeBoxOdd"></rect><text style="dominant-baseline: middle; font-size: 10.2px;" transform="translate(5,123.0078125)" y="0" x="0" id="text-entity-tblorganizationOrganization-5a4688be-e944-55a4-9c04-fab7bb5591c4-attr-5-type" class="er entityLabel">*datetime</text><rect height="22" width="60.984375" y="112.0078125" x="76.8984375" class="er attributeBoxOdd"></rect><text style="dominant-baseline: middle; font-size: 10.2px;" transform="translate(81.8984375,123.0078125)" y="0" x="0" id="text-entity-tblorganizationOrganization-5a4688be-e944-55a4-9c04-fab7bb5591c4-attr-5-name" class="er entityLabel">expire</text><rect height="22" width="21.5625" y="112.0078125" x="137.8828125" class="er attributeBoxOdd"></rect><text style="dominant-baseline: middle; font-size: 10.2px;" transform="translate(142.8828125,123.0078125)" y="0" x="0" id="text-entity-tblorganizationOrganization-5a4688be-e944-55a4-9c04-fab7bb5591c4-attr-5-key" class="er entityLabel"></text><rect height="22" width="195.71875" y="112.0078125" x="159.4453125" class="er attributeBoxOdd"></rect><text style="dominant-baseline: middle; font-size: 10.2px;" transform="translate(164.4453125,123.0078125)" y="0" x="0" id="text-entity-tblorganizationOrganization-5a4688be-e944-55a4-9c04-fab7bb5591c4-attr-5-comment" class="er entityLabel"></text></g><g transform="translate(184.177734375,20 )" id="entity-tblmtmlicenseorganizationtblmtmlicenseorganization-25e6b5b3-ba32-5fee-8bc3-8dc7807495c8"><rect height="68.0078125" width="363.8828125" y="0" x="0" class="er entityBox"></rect><text style="dominant-baseline: middle; text-anchor: middle; font-size: 12px;" transform="translate(181.94140625,12.00390625)" y="0" x="0" id="text-entity-tblmtmlicenseorganizationtblmtmlicenseorganization-25e6b5b3-ba32-5fee-8bc3-8dc7807495c8" class="er entityLabel">tbl_mtm_license_organization(tbl_mtm_license_organization)</text><rect height="22" width="99.78645833333333" y="24.0078125" x="0" class="er attributeBoxOdd"></rect><text style="dominant-baseline: middle; font-size: 10.2px;" transform="translate(5,35.0078125)" y="0" x="0" id="text-entity-tblmtmlicenseorganizationtblmtmlicenseorganization-25e6b5b3-ba32-5fee-8bc3-8dc7807495c8-attr-1-type" class="er entityLabel">*int</text><rect height="22" width="154.05208333333331" y="24.0078125" x="99.78645833333333" class="er attributeBoxOdd"></rect><text style="dominant-baseline: middle; font-size: 10.2px;" transform="translate(104.78645833333333,35.0078125)" y="0" x="0" id="text-entity-tblmtmlicenseorganizationtblmtmlicenseorganization-25e6b5b3-ba32-5fee-8bc3-8dc7807495c8-attr-1-name" class="er entityLabel">license_id</text><rect height="22" width="110.04427083333333" y="24.0078125" x="253.83854166666663" class="er attributeBoxOdd"></rect><text style="dominant-baseline: middle; font-size: 10.2px;" transform="translate(258.83854166666663,35.0078125)" y="0" x="0" id="text-entity-tblmtmlicenseorganizationtblmtmlicenseorganization-25e6b5b3-ba32-5fee-8bc3-8dc7807495c8-attr-1-key" class="er entityLabel">FK,PK</text><rect height="22" width="99.78645833333333" y="46.0078125" x="0" class="er attributeBoxEven"></rect><text style="dominant-baseline: middle; font-size: 10.2px;" transform="translate(5,57.0078125)" y="0" x="0" id="text-entity-tblmtmlicenseorganizationtblmtmlicenseorganization-25e6b5b3-ba32-5fee-8bc3-8dc7807495c8-attr-2-type" class="er entityLabel">*int</text><rect height="22" width="154.05208333333331" y="46.0078125" x="99.78645833333333" class="er attributeBoxEven"></rect><text style="dominant-baseline: middle; font-size: 10.2px;" transform="translate(104.78645833333333,57.0078125)" y="0" x="0" id="text-entity-tblmtmlicenseorganizationtblmtmlicenseorganization-25e6b5b3-ba32-5fee-8bc3-8dc7807495c8-attr-2-name" class="er entityLabel">organization_id</text><rect height="22" width="110.04427083333333" y="46.0078125" x="253.83854166666663" class="er attributeBoxEven"></rect><text style="dominant-baseline: middle; font-size: 10.2px;" transform="translate(258.83854166666663,57.0078125)" y="0" x="0" id="text-entity-tblmtmlicenseorganizationtblmtmlicenseorganization-25e6b5b3-ba32-5fee-8bc3-8dc7807495c8-attr-2-key" class="er entityLabel">FK,PK</text></g><rect height="14" width="47.28125" y="643.0230102539062" x="134.578369140625" class="er relationshipLabelBox"></rect><text style="text-anchor: middle; dominant-baseline: middle; font-size: 12px;" y="650.0230102539062" x="158.218994140625" id="rel1" class="er relationshipLabel">photo_id</text><rect height="14" width="39.0234375" y="407.9831848144531" x="141.89431762695312" class="er relationshipLabelBox"></rect><text style="text-anchor: middle; dominant-baseline: middle; font-size: 12px;" y="414.9831848144531" x="161.40603637695312" id="rel2" class="er relationshipLabel">user_id</text><rect height="14" width="141.203125" y="407.87158203125" x="342.6698913574219" class="er relationshipLabelBox"></rect><text style="text-anchor: middle; dominant-baseline: middle; font-size: 12px;" y="414.87158203125" x="413.2714538574219" id="rel3" class="er relationshipLabel">license_id,organization_id</text><rect height="14" width="53.8125" y="118.19578552246094" x="211.7650146484375" class="er relationshipLabelBox"></rect><text style="text-anchor: middle; dominant-baseline: middle; font-size: 12px;" y="125.19578552246094" x="238.6712646484375" id="rel4" class="er relationshipLabel">license_id</text><rect height="14" width="82.9921875" y="228.60691833496094" x="581.827392578125" class="er relationshipLabelBox"></rect><text style="text-anchor: middle; dominant-baseline: middle; font-size: 12px;" y="235.60691833496094" x="623.323486328125" id="rel5" class="er relationshipLabel">organization_id</text></svg>