<svg width="48.36" height="26.521" viewBox="0 0 48.36 26.521" xmlns="http://www.w3.org/2000/svg"><g id="svgGroup" stroke-linecap="round" fill-rule="evenodd" font-size="9pt" stroke="#e69a00" stroke-width="0.8mm" fill="#ffab00" style="stroke:#e69a00;stroke-width:0.8mm;fill:#ffab00"><path d="M 0.57 6.121 L 0 1.351 Q 1.263 1.119 2.87 0.942 A 59.358 59.358 0 0 1 3.405 0.886 A 120.111 120.111 0 0 1 5.4 0.702 A 142.549 142.549 0 0 1 7.515 0.541 Q 9.69 0.391 11.85 0.316 A 126.237 126.237 0 0 1 14.445 0.251 A 103.11 103.11 0 0 1 15.9 0.241 A 87.752 87.752 0 0 1 17.336 0.252 A 66.448 66.448 0 0 1 18.645 0.286 A 44.751 44.751 0 0 1 19.24 0.311 Q 20.036 0.351 20.618 0.412 A 14.891 14.891 0 0 1 20.7 0.421 L 20.46 5.431 Q 19.687 5.288 18.395 5.213 A 35.082 35.082 0 0 0 18.27 5.206 A 48.856 48.856 0 0 0 16.808 5.15 A 67.199 67.199 0 0 0 15.18 5.131 A 101.557 101.557 0 0 0 12.562 5.166 A 122.683 122.683 0 0 0 10.89 5.221 Q 8.61 5.311 6.54 5.431 Q 6.3 6.691 6.12 8.011 Q 5.94 9.331 5.79 10.621 A 46.81 46.81 0 0 1 7.616 10.407 A 60.717 60.717 0 0 1 9.615 10.246 Q 11.7 10.111 13.77 10.036 Q 15.773 9.963 17.383 9.961 A 73.394 73.394 0 0 1 17.49 9.961 A 106.002 106.002 0 0 1 18.29 9.964 Q 18.656 9.966 18.985 9.972 A 62.187 62.187 0 0 1 19.2 9.976 A 18.439 18.439 0 0 1 19.684 9.991 Q 20.115 10.011 20.43 10.051 L 20.31 14.971 A 10.76 10.76 0 0 0 20.097 14.957 Q 19.751 14.937 19.245 14.926 A 54.631 54.631 0 0 0 18.707 14.917 Q 18.233 14.911 17.67 14.911 A 87.572 87.572 0 0 0 16.305 14.922 A 119.821 119.821 0 0 0 14.79 14.956 A 204.105 204.105 0 0 0 11.927 15.058 A 224.607 224.607 0 0 0 11.505 15.076 A 153.357 153.357 0 0 0 8.619 15.23 A 139.46 139.46 0 0 0 8.22 15.256 A 68.045 68.045 0 0 0 6.705 15.372 A 50.093 50.093 0 0 0 5.34 15.511 Q 5.233 17.014 5.221 17.988 A 19.173 19.173 0 0 0 5.22 18.211 A 8.822 8.822 0 0 0 5.25 18.966 Q 5.313 19.7 5.51 20.166 A 1.978 1.978 0 0 0 5.61 20.371 A 1.719 1.719 0 0 0 6.49 21.127 A 2.52 2.52 0 0 0 6.915 21.256 A 7.424 7.424 0 0 0 7.613 21.367 Q 7.979 21.409 8.409 21.43 A 18.92 18.92 0 0 0 9.33 21.451 A 36.285 36.285 0 0 0 12.643 21.292 A 45.58 45.58 0 0 0 15.075 21.001 Q 18.15 20.551 21.15 19.591 L 21.48 24.811 Q 17.88 25.801 14.955 26.146 A 60.558 60.558 0 0 1 12.886 26.356 Q 11.898 26.438 11.039 26.47 A 28.165 28.165 0 0 1 9.99 26.491 Q 7.728 26.491 5.924 26.181 A 17.507 17.507 0 0 1 5.895 26.176 Q 4.08 25.861 2.82 24.976 Q 1.56 24.091 0.9 22.381 Q 0.42 21.138 0.289 19.342 A 19.693 19.693 0 0 1 0.24 17.911 A 42.198 42.198 0 0 1 0.379 14.546 A 47.377 47.377 0 0 1 0.45 13.741 A 73.916 73.916 0 0 1 0.936 9.809 A 67.798 67.798 0 0 1 0.975 9.556 Q 1.269 7.665 1.55 6.154 A 81.536 81.536 0 0 1 1.59 5.941 Q 1.131 6.01 0.777 6.079 A 11.258 11.258 0 0 0 0.57 6.121 Z" id="0" vector-effect="non-scaling-stroke"/><path d="M 27.24 26.521 L 27.03 26.341 Q 26.94 24.301 26.94 21.841 Q 26.94 19.471 27.03 16.801 Q 27.12 14.131 27.3 11.386 Q 27.48 8.641 27.78 6.031 A 125.114 125.114 0 0 1 27.311 6.147 A 107.647 107.647 0 0 1 26.865 6.256 A 10.891 10.891 0 0 0 26.399 6.379 A 8.498 8.498 0 0 0 26.07 6.481 L 24.54 1.711 A 82.533 82.533 0 0 1 29.244 0.737 Q 31.484 0.346 33.428 0.163 A 34.225 34.225 0 0 1 36.63 0.001 A 18.899 18.899 0 0 1 40.203 0.308 Q 46.44 1.515 46.44 7.471 A 8.492 8.492 0 0 1 46.097 9.945 A 6.583 6.583 0 0 1 44.1 13.036 A 8.979 8.979 0 0 1 41.685 14.522 Q 40.544 15.01 39.14 15.315 A 20.38 20.38 0 0 1 37.23 15.631 A 34.176 34.176 0 0 0 40.655 18.193 A 28.247 28.247 0 0 0 42.735 19.426 Q 45.51 20.911 48.36 21.931 L 45.06 26.341 Q 43.47 25.771 41.73 24.751 Q 39.99 23.731 38.28 22.501 A 67.856 67.856 0 0 1 35.122 20.09 A 62.636 62.636 0 0 1 35.025 20.011 A 87.335 87.335 0 0 1 33.566 18.796 A 63.682 63.682 0 0 1 32.28 17.671 Q 32.25 19.741 32.235 21.856 A 608.838 608.838 0 0 0 32.22 25.66 A 667.362 667.362 0 0 0 32.22 26.221 L 32.04 26.401 Q 30.9 26.401 29.595 26.416 A 37.651 37.651 0 0 0 28.358 26.449 A 27.337 27.337 0 0 0 27.241 26.521 Z M 36.36 4.771 Q 35.52 4.771 34.62 4.846 Q 33.72 4.921 32.82 5.041 Q 32.7 6.721 32.61 8.356 Q 32.52 9.991 32.46 11.611 A 39.625 39.625 0 0 0 33.836 11.555 A 50.436 50.436 0 0 0 35.325 11.446 Q 36.87 11.311 38.25 10.906 A 7.004 7.004 0 0 0 39.399 10.462 A 5.137 5.137 0 0 0 40.515 9.721 A 2.568 2.568 0 0 0 41.391 7.908 A 3.546 3.546 0 0 0 41.4 7.651 Q 41.4 6.151 40.17 5.461 A 4.252 4.252 0 0 0 39.244 5.09 Q 38.284 4.819 36.874 4.778 A 17.789 17.789 0 0 0 36.36 4.771 Z" id="1" vector-effect="non-scaling-stroke"/></g></svg>